<mxfile host="app.diagrams.net" agent="Mozilla/5.0 (Macintosh; Intel Mac OS X 10_15_7) AppleWebKit/537.36 (KHTML, like Gecko) Chrome/128.0.0.0 Safari/537.36" version="24.7.7">
  <diagram name="Page-1" id="e7e014a7-5840-1c2e-5031-d8a46d1fe8dd">
    <mxGraphModel dx="968" dy="544" grid="1" gridSize="10" guides="1" tooltips="1" connect="1" arrows="1" fold="1" page="1" pageScale="1" pageWidth="1169" pageHeight="826" background="none" math="0" shadow="0">
      <root>
        <mxCell id="0" />
        <mxCell id="1" parent="0" />
        <mxCell id="rC1jzke7cSfcXqQ4rUpF-43" value="Contributor" style="swimlane;horizontal=0;whiteSpace=wrap;html=1;" parent="1" vertex="1">
          <mxGeometry x="40" y="280" width="760" height="180" as="geometry" />
        </mxCell>
        <mxCell id="rC1jzke7cSfcXqQ4rUpF-50" value="Show Warning &quot;Can&#39;t Add New Place&quot;" style="verticalAlign=middle;whiteSpace=wrap;rounded=1;" parent="rC1jzke7cSfcXqQ4rUpF-43" vertex="1">
          <mxGeometry x="140" y="103" width="110" height="60" as="geometry" />
        </mxCell>
        <mxCell id="rC1jzke7cSfcXqQ4rUpF-95" value="Insert New Place or Manage Own Places" style="verticalAlign=middle;whiteSpace=wrap;rounded=1;" parent="rC1jzke7cSfcXqQ4rUpF-43" vertex="1">
          <mxGeometry x="400" y="107" width="120" height="53" as="geometry" />
        </mxCell>
        <mxCell id="rC1jzke7cSfcXqQ4rUpF-97" value="Contribution Page" style="verticalAlign=middle;whiteSpace=wrap;rounded=1;" parent="rC1jzke7cSfcXqQ4rUpF-43" vertex="1">
          <mxGeometry x="140" y="20" width="110" height="45" as="geometry" />
        </mxCell>
        <mxCell id="rC1jzke7cSfcXqQ4rUpF-98" style="rounded=0;orthogonalLoop=1;jettySize=auto;html=1;entryX=0.5;entryY=0;entryDx=0;entryDy=0;endArrow=open;endFill=0;exitX=0.5;exitY=1;exitDx=0;exitDy=0;edgeStyle=orthogonalEdgeStyle;" parent="rC1jzke7cSfcXqQ4rUpF-43" source="rC1jzke7cSfcXqQ4rUpF-97" target="rC1jzke7cSfcXqQ4rUpF-50" edge="1">
          <mxGeometry relative="1" as="geometry">
            <mxPoint x="205" y="-67" as="sourcePoint" />
            <mxPoint x="205" y="25" as="targetPoint" />
          </mxGeometry>
        </mxCell>
        <mxCell id="rC1jzke7cSfcXqQ4rUpF-99" value="Contribution Page" style="verticalAlign=middle;whiteSpace=wrap;rounded=1;" parent="rC1jzke7cSfcXqQ4rUpF-43" vertex="1">
          <mxGeometry x="402.5" y="20" width="115" height="45" as="geometry" />
        </mxCell>
        <mxCell id="rC1jzke7cSfcXqQ4rUpF-102" style="rounded=0;orthogonalLoop=1;jettySize=auto;html=1;entryX=0.5;entryY=0;entryDx=0;entryDy=0;endArrow=open;endFill=0;exitX=0.5;exitY=1;exitDx=0;exitDy=0;edgeStyle=orthogonalEdgeStyle;" parent="rC1jzke7cSfcXqQ4rUpF-43" source="rC1jzke7cSfcXqQ4rUpF-99" target="rC1jzke7cSfcXqQ4rUpF-95" edge="1">
          <mxGeometry relative="1" as="geometry">
            <mxPoint x="470" y="-62" as="sourcePoint" />
            <mxPoint x="470" y="30" as="targetPoint" />
          </mxGeometry>
        </mxCell>
        <mxCell id="rC1jzke7cSfcXqQ4rUpF-55" value="User" style="swimlane;horizontal=0;whiteSpace=wrap;html=1;" parent="1" vertex="1">
          <mxGeometry x="40" y="80" width="760" height="200" as="geometry" />
        </mxCell>
        <mxCell id="rC1jzke7cSfcXqQ4rUpF-56" style="edgeStyle=orthogonalEdgeStyle;rounded=0;orthogonalLoop=1;jettySize=auto;html=1;endArrow=open;endFill=0;" parent="rC1jzke7cSfcXqQ4rUpF-55" source="rC1jzke7cSfcXqQ4rUpF-57" target="rC1jzke7cSfcXqQ4rUpF-59" edge="1">
          <mxGeometry relative="1" as="geometry" />
        </mxCell>
        <mxCell id="rC1jzke7cSfcXqQ4rUpF-57" value="" style="ellipse;shape=startState;fillColor=#000000;strokeColor=none;" parent="rC1jzke7cSfcXqQ4rUpF-55" vertex="1">
          <mxGeometry x="77.5" y="10" width="30" height="30" as="geometry" />
        </mxCell>
        <mxCell id="rC1jzke7cSfcXqQ4rUpF-58" style="edgeStyle=orthogonalEdgeStyle;rounded=0;orthogonalLoop=1;jettySize=auto;html=1;entryX=0;entryY=0.5;entryDx=0;entryDy=0;endArrow=open;endFill=0;" parent="rC1jzke7cSfcXqQ4rUpF-55" source="rC1jzke7cSfcXqQ4rUpF-59" target="rC1jzke7cSfcXqQ4rUpF-60" edge="1">
          <mxGeometry relative="1" as="geometry" />
        </mxCell>
        <mxCell id="rC1jzke7cSfcXqQ4rUpF-59" value="User Login&#xa;(New User)" style="verticalAlign=middle;whiteSpace=wrap;rounded=1;" parent="rC1jzke7cSfcXqQ4rUpF-55" vertex="1">
          <mxGeometry x="40" y="70" width="105" height="70" as="geometry" />
        </mxCell>
        <mxCell id="rC1jzke7cSfcXqQ4rUpF-60" value="" style="rhombus;whiteSpace=wrap;html=1;shadow=0;fillStyle=hatch;" parent="rC1jzke7cSfcXqQ4rUpF-55" vertex="1">
          <mxGeometry x="180" y="87.5" width="30" height="35" as="geometry" />
        </mxCell>
        <mxCell id="rC1jzke7cSfcXqQ4rUpF-62" value="Explore Page" style="verticalAlign=middle;whiteSpace=wrap;rounded=1;" parent="rC1jzke7cSfcXqQ4rUpF-55" vertex="1">
          <mxGeometry x="240" y="80" width="110" height="50" as="geometry" />
        </mxCell>
        <mxCell id="rC1jzke7cSfcXqQ4rUpF-66" style="rounded=0;orthogonalLoop=1;jettySize=auto;html=1;entryX=0;entryY=0.5;entryDx=0;entryDy=0;endArrow=open;endFill=0;exitX=1;exitY=0.5;exitDx=0;exitDy=0;" parent="rC1jzke7cSfcXqQ4rUpF-55" source="rC1jzke7cSfcXqQ4rUpF-60" target="rC1jzke7cSfcXqQ4rUpF-62" edge="1">
          <mxGeometry relative="1" as="geometry">
            <mxPoint x="253" y="107" as="sourcePoint" />
            <mxPoint x="300" y="55" as="targetPoint" />
          </mxGeometry>
        </mxCell>
        <mxCell id="rC1jzke7cSfcXqQ4rUpF-70" value="Give Review 10x inÂ Different Locations" style="verticalAlign=middle;whiteSpace=wrap;rounded=1;" parent="rC1jzke7cSfcXqQ4rUpF-55" vertex="1">
          <mxGeometry x="390" y="81.88" width="140" height="46.25" as="geometry" />
        </mxCell>
        <mxCell id="rC1jzke7cSfcXqQ4rUpF-71" style="rounded=0;orthogonalLoop=1;jettySize=auto;html=1;entryX=0;entryY=0.5;entryDx=0;entryDy=0;endArrow=open;endFill=0;exitX=1;exitY=0.5;exitDx=0;exitDy=0;" parent="rC1jzke7cSfcXqQ4rUpF-55" source="rC1jzke7cSfcXqQ4rUpF-62" target="rC1jzke7cSfcXqQ4rUpF-70" edge="1">
          <mxGeometry relative="1" as="geometry">
            <mxPoint x="253" y="107" as="sourcePoint" />
            <mxPoint x="300" y="55" as="targetPoint" />
          </mxGeometry>
        </mxCell>
        <mxCell id="rC1jzke7cSfcXqQ4rUpF-93" style="edgeStyle=orthogonalEdgeStyle;rounded=0;orthogonalLoop=1;jettySize=auto;html=1;entryX=0.5;entryY=1;entryDx=0;entryDy=0;endArrow=open;endFill=0;" parent="rC1jzke7cSfcXqQ4rUpF-55" source="rC1jzke7cSfcXqQ4rUpF-91" target="rC1jzke7cSfcXqQ4rUpF-94" edge="1">
          <mxGeometry relative="1" as="geometry">
            <mxPoint x="725" y="120" as="targetPoint" />
          </mxGeometry>
        </mxCell>
        <mxCell id="rC1jzke7cSfcXqQ4rUpF-91" value="Logout" style="verticalAlign=middle;whiteSpace=wrap;rounded=1;" parent="rC1jzke7cSfcXqQ4rUpF-55" vertex="1">
          <mxGeometry x="570" y="90.00999999999999" width="110" height="30" as="geometry" />
        </mxCell>
        <mxCell id="rC1jzke7cSfcXqQ4rUpF-94" value="" style="ellipse;html=1;shape=endState;fillColor=#000000;strokeColor=#000000;" parent="rC1jzke7cSfcXqQ4rUpF-55" vertex="1">
          <mxGeometry x="610" y="10" width="30" height="30" as="geometry" />
        </mxCell>
        <mxCell id="rC1jzke7cSfcXqQ4rUpF-68" style="rounded=0;orthogonalLoop=1;jettySize=auto;html=1;entryX=0.5;entryY=0;entryDx=0;entryDy=0;endArrow=open;endFill=0;exitX=0.5;exitY=1;exitDx=0;exitDy=0;edgeStyle=orthogonalEdgeStyle;" parent="1" source="rC1jzke7cSfcXqQ4rUpF-60" target="rC1jzke7cSfcXqQ4rUpF-97" edge="1">
          <mxGeometry relative="1" as="geometry">
            <mxPoint x="292" y="204" as="sourcePoint" />
            <mxPoint x="340" y="255" as="targetPoint" />
          </mxGeometry>
        </mxCell>
        <mxCell id="rC1jzke7cSfcXqQ4rUpF-74" style="edgeStyle=orthogonalEdgeStyle;rounded=0;orthogonalLoop=1;jettySize=auto;html=1;exitX=1;exitY=0.5;exitDx=0;exitDy=0;entryX=0.5;entryY=1;entryDx=0;entryDy=0;endArrow=open;endFill=0;" parent="1" source="rC1jzke7cSfcXqQ4rUpF-50" target="rC1jzke7cSfcXqQ4rUpF-62" edge="1">
          <mxGeometry relative="1" as="geometry">
            <mxPoint x="550" y="230" as="targetPoint" />
          </mxGeometry>
        </mxCell>
        <mxCell id="rC1jzke7cSfcXqQ4rUpF-100" style="rounded=0;orthogonalLoop=1;jettySize=auto;html=1;entryX=0.5;entryY=0;entryDx=0;entryDy=0;endArrow=open;endFill=0;exitX=0.5;exitY=1;exitDx=0;exitDy=0;edgeStyle=orthogonalEdgeStyle;" parent="1" source="rC1jzke7cSfcXqQ4rUpF-70" target="rC1jzke7cSfcXqQ4rUpF-99" edge="1">
          <mxGeometry relative="1" as="geometry">
            <mxPoint x="245" y="213" as="sourcePoint" />
            <mxPoint x="245" y="310" as="targetPoint" />
          </mxGeometry>
        </mxCell>
        <mxCell id="rC1jzke7cSfcXqQ4rUpF-103" style="edgeStyle=orthogonalEdgeStyle;rounded=0;orthogonalLoop=1;jettySize=auto;html=1;exitX=1;exitY=0.5;exitDx=0;exitDy=0;endArrow=open;endFill=0;" parent="1" source="rC1jzke7cSfcXqQ4rUpF-95" target="rC1jzke7cSfcXqQ4rUpF-91" edge="1">
          <mxGeometry relative="1" as="geometry">
            <mxPoint x="345" y="220" as="targetPoint" />
            <mxPoint x="300" y="423" as="sourcePoint" />
          </mxGeometry>
        </mxCell>
      </root>
    </mxGraphModel>
  </diagram>
</mxfile>
